<svg fill="none" viewBox="0 0 428 123" xmlns="http://www.w3.org/2000/svg"><path d="M22.51 14.708s-6.424 90.078 13.572 86.271c14.276-2.719 24.019-56.218 24.019-56.218s-7.447 59.355 11.448 56.273c15.078-2.46 43.55-80.032 23.808-78.742-12.066.788-11.398 58.032 12.858 66.117 15.247 5.083 30.919-5.18 31.685-16.924.883-13.542-17.489-15.83-23.149 1.021-5.204 15.495 3.796 34.357 23.481 28.616 28.1-8.195 44.025-51.408 45.477-66.659 1.532-16.085-10.213-17.617-17.362-3.319-6.678 13.356-17.667 70.979 6.383 70.979 13.262 0 20.115-28.295 34.084-36.5 9.918-5.825 16.696-4.207 16.696-4.207s-22.872 1.299-27.321 19.637c-2.158 8.896 6.972 28.991 27.8 18.07 19.355-10.149 12.579-33.302 36.681-36.377 9.78-1.247 16.281 10.674 15.634 19.079-.893 11.617-11.872 21.447-22.723 19.915-9.912-1.399-16.259-15.453-12.382-23.872 6.099-13.245 13.254-14.613 19.471-15.122 15.145-1.239 19.352 19.303 27.416 18.322 7.884-.959 13.294-11.859 13.294-11.859l-5.753 31.624s11.554-36.198 21-35.318c10.729 1 4.693 27.283 4.693 27.283s10.217-28.918 20.719-26.718c10.164 2.129-5.662 29.098 5.388 34.623 12.423 6.212 40.13-16.959 40.896-28.704.884-13.542-17.489-15.83-23.149 1.021-4.553 13.559 3.776 29.228 19.375 29.263 9.878.022 17.273-5.514 19.289-7.097"/></svg>