<svg class="icon" viewBox="0 0 1024 1024" xmlns="http://www.w3.org/2000/svg" width="200" height="200"><path d="M538 205.7c-153.5 0-278.3 137.4-278.3 306.3S384.5 818.3 538 818.3 822 680.9 822 512 691.5 205.7 538 205.7z" fill="#FF99B1"/><path d="M30.7 487.7s19.2-3.8 30.7-15.3c11.6-11.6 15.5-30.9 15.5-30.9s3.7 19 15.1 30.5c11.6 11.6 31 15.7 31 15.7s-18.9 3.6-30.3 14.9c-11.7 11.7-15.8 31.2-15.8 31.2S73 514.6 61.5 503c-11.6-11.5-30.8-15.3-30.8-15.3zM96 242s29.5-5.8 47.2-23.5C161 200.7 167 171 167 171s5.6 29.3 23.2 46.9C208.1 235.8 238 242 238 242s-29.1 5.5-46.7 23c-18 18-24.3 48-24.3 48s-5.9-29.6-23.7-47.4C125.6 247.9 96 242 96 242zm673 596.4s19.2-3.8 30.7-15.3c11.6-11.6 15.5-30.9 15.5-30.9s3.7 19 15.1 30.5c11.6 11.6 31 15.7 31 15.7s-18.9 3.6-30.3 14.9c-11.7 11.7-15.8 31.2-15.8 31.2s-3.9-19.2-15.4-30.8c-11.6-11.5-30.8-15.3-30.8-15.3zm-256.4 7.2C328.6 845.6 179 695.9 179 512s149.6-333.7 333.6-333.7S846.2 328 846.2 511.9 696.5 845.6 512.6 845.6zm0-637.4c-167.5 0-303.8 136.3-303.8 303.8S345 815.8 512.6 815.8 816.4 679.5 816.4 512 680.1 208.2 512.6 208.2z" fill="#994F64"/><path d="M870.9 164c-18.5-19-45.1-28.7-78.9-28.7-58 0-133.8 28.5-215 78.1 15.1 2.7 28.3 6.5 39.9 11.4 66.9-37.9 128.5-59.7 175.1-59.7 25.5 0 44.9 6.6 57.5 19.7 28.6 29.4 22.9 92.8-15.5 173.8-41.1 86.7-114.2 183.5-205.8 272.4-140.3 136.3-299.1 227.8-395 227.8-25.5 0-44.9-6.6-57.5-19.7-28.6-29.4-22.9-92.8 15.5-173.8 8.6-18.2 19-36.9 30.3-55.8-4.6-10.3-7.8-23.6-9.9-40.5-18.4 28.4-34.6 56.4-47.4 83.5-44.7 94.3-48.3 168-9.9 207.4 18.5 19 45.1 28.7 78.9 28.7 104.8 0 268.1-92.7 415.9-236.2 94.1-91.4 169.4-191.2 212-281.1 44.6-94.2 48.2-167.9 9.8-207.3zm-413 143.8c-80.2 0-145.1 65-145.1 145.1 0 8.9-7.2 16.1-16.1 16.1-8.9 0-16.3-7.2-16.1-16.1 2.4-96.5 78.6-170.4 177.4-177.4 8.9-.6 16.1 7.2 16.1 16.1-.1 9-7.3 16.2-16.2 16.2z" fill="#994F64"/></svg>